<svg xmlns="http://www.w3.org/2000/svg" width="24" height="24" viewBox="0 0 24 24"><path d="M0,0H24V24H0Z" fill="none"/><path fill="#fff" d="M19.48,12.975A8.113,8.113,0,0,0,19.543,12a6.131,6.131,0,0,0-.075-.975l2.125-1.65a.515.515,0,0,0,.126-.637L19.706,5.275a.513.513,0,0,0-.616-.225l-2.5,1a7.376,7.376,0,0,0-1.7-.975l-.377-2.65a.5.5,0,0,0-.5-.425H9.989a.488.488,0,0,0-.49.425l-.377,2.65a7.573,7.573,0,0,0-1.7.975l-2.5-1a.5.5,0,0,0-.616.225L2.295,8.737a.483.483,0,0,0,.126.638l2.125,1.65a5.858,5.858,0,0,0-.013,1.95l-2.125,1.65a.515.515,0,0,0-.126.638l2.011,3.463a.513.513,0,0,0,.616.225l2.5-1a7.376,7.376,0,0,0,1.7.975l.377,2.65a.511.511,0,0,0,.5.425h4.023a.479.479,0,0,0,.49-.425l.377-2.65a7.573,7.573,0,0,0,1.7-.975l2.5,1a.5.5,0,0,0,.616-.225l2.011-3.462a.483.483,0,0,0-.126-.638l-2.1-1.65ZM12,15.75A3.75,3.75,0,1,1,15.771,12,3.772,3.772,0,0,1,12,15.75Z" transform="translate(0 0)"/></svg>