<svg xmlns="http://www.w3.org/2000/svg" viewBox="0 0 25 25"><g transform="translate(144.174 149.176)"><path fill="#ffffff" d="M32.318,18.189l-3.012-.565a9.3,9.3,0,0,0-.72-1.743l1.743-2.547a.646.646,0,0,0-.074-.792l-2.148-2.149a.647.647,0,0,0-.792-.074l-2.548,1.743a9.319,9.319,0,0,0-1.8-.734l-.562-3a.648.648,0,0,0-.613-.508H18.757a.648.648,0,0,0-.613.508l-.567,3.025a9.287,9.287,0,0,0-1.724.72l-2.516-1.721a.646.646,0,0,0-.792.074L10.4,12.579a.647.647,0,0,0-.074.792L12.054,15.9a9.335,9.335,0,0,0-.709,1.722l-3.011.564a.648.648,0,0,0-.508.613V21.84a.648.648,0,0,0,.508.613l3.009.564a9.313,9.313,0,0,0,.724,1.757l-1.713,2.5a.646.646,0,0,0,.074.792l2.148,2.149a.647.647,0,0,0,.792.074l2.5-1.713a9.353,9.353,0,0,0,1.706.711l.567,3.026a.648.648,0,0,0,.613.508H21.8a.648.648,0,0,0,.613-.508l.562-3a9.4,9.4,0,0,0,1.778-.724l2.535,1.734a.646.646,0,0,0,.792-.074l2.148-2.148a.647.647,0,0,0,.074-.792L28.574,24.8a9.315,9.315,0,0,0,.736-1.779l3.009-.564a.648.648,0,0,0,.508-.613V18.8A.648.648,0,0,0,32.318,18.189Zm-11.992,7.35a5.214,5.214,0,1,1,5.215-5.215A5.214,5.214,0,0,1,20.326,25.538Z" transform="translate(-152 -157)"/></g></svg>
